<?xml version="1.0"?>
<svg xmlns="http://www.w3.org/2000/svg" xmlns:xlink="http://www.w3.org/1999/xlink" xmlns:svgjs="http://svgjs.com/svgjs" version="1.1" width="32" height="32" x="0" y="0" viewBox="0 0 512 512" style="enable-background:new 0 0 512 512" xml:space="preserve" class=""><g><path xmlns="http://www.w3.org/2000/svg" d="m432 16h-352a24.0275 24.0275 0 0 0 -24 24v432a24.0275 24.0275 0 0 0 24 24h352a24.0275 24.0275 0 0 0 24-24v-432a24.0275 24.0275 0 0 0 -24-24zm-352 16h352a8.00917 8.00917 0 0 1 8 8v40h-368v-40a8.00917 8.00917 0 0 1 8-8zm352 448h-352a8.00917 8.00917 0 0 1 -8-8v-376h368v376a8.00917 8.00917 0 0 1 -8 8z" fill="#ffffff" data-original="#000000" style="" class=""/><circle xmlns="http://www.w3.org/2000/svg" cx="96" cy="56" r="8" fill="#ffffff" data-original="#000000" style="" class=""/><circle xmlns="http://www.w3.org/2000/svg" cx="120" cy="56" r="8" fill="#ffffff" data-original="#000000" style="" class=""/><circle xmlns="http://www.w3.org/2000/svg" cx="144" cy="56" r="8" fill="#ffffff" data-original="#000000" style="" class=""/><path xmlns="http://www.w3.org/2000/svg" d="m408 128h-296a8.00039 8.00039 0 0 0 -8 8v168a8.00039 8.00039 0 0 0 8 8h296a8.00039 8.00039 0 0 0 8-8v-168a8.00039 8.00039 0 0 0 -8-8zm-8 168h-280v-152h280z" fill="#ffffff" data-original="#000000" style="" class=""/><path xmlns="http://www.w3.org/2000/svg" d="m272 344h80v16h-80z" fill="#ffffff" data-original="#000000" style="" class=""/><path xmlns="http://www.w3.org/2000/svg" d="m200 344h56v16h-56z" fill="#ffffff" data-original="#000000" style="" class=""/><path xmlns="http://www.w3.org/2000/svg" d="m304 384h48v16h-48z" fill="#ffffff" data-original="#000000" style="" class=""/><path xmlns="http://www.w3.org/2000/svg" d="m240 384h48v16h-48z" fill="#ffffff" data-original="#000000" style="" class=""/><path xmlns="http://www.w3.org/2000/svg" d="m160 384h64v16h-64z" fill="#ffffff" data-original="#000000" style="" class=""/><path xmlns="http://www.w3.org/2000/svg" d="m288 424h64v16h-64z" fill="#ffffff" data-original="#000000" style="" class=""/><path xmlns="http://www.w3.org/2000/svg" d="m208 424h64v16h-64z" fill="#ffffff" data-original="#000000" style="" class=""/><path xmlns="http://www.w3.org/2000/svg" d="m160 424h32v16h-32z" fill="#ffffff" data-original="#000000" style="" class=""/><path xmlns="http://www.w3.org/2000/svg" d="m147.2002 254.40039 32 24a8.00115 8.00115 0 0 0 4.7998 1.59961h32a8.00115 8.00115 0 0 0 4.7998-1.59961l32-24a8.00229 8.00229 0 0 0 3.2002-6.40039v-48a7.99943 7.99943 0 0 0 -3.5625-6.65625l-48-32a8.00131 8.00131 0 0 0 -8.875 0l-48 32a7.99943 7.99943 0 0 0 -3.5625 6.65625v48a8.00229 8.00229 0 0 0 3.2002 6.40039zm66.1328 9.59961h-26.666l-26.667-20v-29.052l35.5625 23.70825a7.99891 7.99891 0 0 0 8.875 0l35.5625-23.70825v29.052zm-13.333-86.38477 33.57812 22.38477-33.57812 22.38477-33.57812-22.38477z" fill="#ffffff" data-original="#000000" style="" class=""/><path xmlns="http://www.w3.org/2000/svg" d="m280 176h32v16h-32z" fill="#ffffff" data-original="#000000" style="" class=""/><path xmlns="http://www.w3.org/2000/svg" d="m280 208h24v16h-24z" fill="#ffffff" data-original="#000000" style="" class=""/><path xmlns="http://www.w3.org/2000/svg" d="m320 208h56v16h-56z" fill="#ffffff" data-original="#000000" style="" class=""/><path xmlns="http://www.w3.org/2000/svg" d="m280 240h48v16h-48z" fill="#ffffff" data-original="#000000" style="" class=""/><path xmlns="http://www.w3.org/2000/svg" d="m344 240h32v16h-32z" fill="#ffffff" data-original="#000000" style="" class=""/></g></svg>
